<?xml version="1.0" encoding="utf-8"?>
<svg xmlns="http://www.w3.org/2000/svg" xmlns:xlink="http://www.w3.org/1999/xlink" width="600" height="400" viewBox="0 0 2400 1600">
<defs>
  <clipPath id="clip480">
    <rect x="0" y="0" width="2400" height="1600"/>
  </clipPath>
</defs>
<path clip-path="url(#clip480)" d="M0 1600 L2400 1600 L2400 0 L0 0  Z" fill="#ffffff" fill-rule="evenodd" fill-opacity="1"/>
<defs>
  <clipPath id="clip481">
    <rect x="266" y="123" width="2087" height="1253"/>
  </clipPath>
</defs>
<path clip-path="url(#clip480)" d="M266.692 1375.66 L2352.76 1375.66 L2352.76 123.472 L266.692 123.472  Z" fill="#ffffff" fill-rule="evenodd" fill-opacity="1"/>
<polyline clip-path="url(#clip481)" style="stroke:#000000; stroke-linecap:round; stroke-linejoin:round; stroke-width:2; stroke-opacity:0.1; fill:none" points="325.731,1375.66 325.731,123.472 "/>
<polyline clip-path="url(#clip481)" style="stroke:#000000; stroke-linecap:round; stroke-linejoin:round; stroke-width:2; stroke-opacity:0.1; fill:none" points="817.728,1375.66 817.728,123.472 "/>
<polyline clip-path="url(#clip481)" style="stroke:#000000; stroke-linecap:round; stroke-linejoin:round; stroke-width:2; stroke-opacity:0.1; fill:none" points="1309.72,1375.66 1309.72,123.472 "/>
<polyline clip-path="url(#clip481)" style="stroke:#000000; stroke-linecap:round; stroke-linejoin:round; stroke-width:2; stroke-opacity:0.1; fill:none" points="1801.72,1375.66 1801.72,123.472 "/>
<polyline clip-path="url(#clip481)" style="stroke:#000000; stroke-linecap:round; stroke-linejoin:round; stroke-width:2; stroke-opacity:0.1; fill:none" points="2293.72,1375.66 2293.72,123.472 "/>
<polyline clip-path="url(#clip481)" style="stroke:#000000; stroke-linecap:round; stroke-linejoin:round; stroke-width:2; stroke-opacity:0.1; fill:none" points="266.692,1340.22 2352.76,1340.22 "/>
<polyline clip-path="url(#clip481)" style="stroke:#000000; stroke-linecap:round; stroke-linejoin:round; stroke-width:2; stroke-opacity:0.1; fill:none" points="266.692,1044.89 2352.76,1044.89 "/>
<polyline clip-path="url(#clip481)" style="stroke:#000000; stroke-linecap:round; stroke-linejoin:round; stroke-width:2; stroke-opacity:0.1; fill:none" points="266.692,749.566 2352.76,749.566 "/>
<polyline clip-path="url(#clip481)" style="stroke:#000000; stroke-linecap:round; stroke-linejoin:round; stroke-width:2; stroke-opacity:0.1; fill:none" points="266.692,454.239 2352.76,454.239 "/>
<polyline clip-path="url(#clip481)" style="stroke:#000000; stroke-linecap:round; stroke-linejoin:round; stroke-width:2; stroke-opacity:0.1; fill:none" points="266.692,158.911 2352.76,158.911 "/>
<polyline clip-path="url(#clip480)" style="stroke:#000000; stroke-linecap:round; stroke-linejoin:round; stroke-width:4; stroke-opacity:1; fill:none" points="266.692,1375.66 2352.76,1375.66 "/>
<polyline clip-path="url(#clip480)" style="stroke:#000000; stroke-linecap:round; stroke-linejoin:round; stroke-width:4; stroke-opacity:1; fill:none" points="325.731,1375.66 325.731,1356.76 "/>
<polyline clip-path="url(#clip480)" style="stroke:#000000; stroke-linecap:round; stroke-linejoin:round; stroke-width:4; stroke-opacity:1; fill:none" points="817.728,1375.66 817.728,1356.76 "/>
<polyline clip-path="url(#clip480)" style="stroke:#000000; stroke-linecap:round; stroke-linejoin:round; stroke-width:4; stroke-opacity:1; fill:none" points="1309.72,1375.66 1309.72,1356.76 "/>
<polyline clip-path="url(#clip480)" style="stroke:#000000; stroke-linecap:round; stroke-linejoin:round; stroke-width:4; stroke-opacity:1; fill:none" points="1801.72,1375.66 1801.72,1356.76 "/>
<polyline clip-path="url(#clip480)" style="stroke:#000000; stroke-linecap:round; stroke-linejoin:round; stroke-width:4; stroke-opacity:1; fill:none" points="2293.72,1375.66 2293.72,1356.76 "/>
<path clip-path="url(#clip480)" d="M325.731 1415.37 Q319.412 1415.37 316.212 1421.61 Q313.052 1427.8 313.052 1440.28 Q313.052 1452.72 316.212 1458.96 Q319.412 1465.15 325.731 1465.15 Q332.091 1465.15 335.251 1458.96 Q338.451 1452.72 338.451 1440.28 Q338.451 1427.8 335.251 1421.61 Q332.091 1415.37 325.731 1415.37 M325.731 1408.89 Q335.899 1408.89 341.246 1416.95 Q346.634 1424.97 346.634 1440.28 Q346.634 1455.55 341.246 1463.61 Q335.899 1471.63 325.731 1471.63 Q315.564 1471.63 310.176 1463.61 Q304.829 1455.55 304.829 1440.28 Q304.829 1424.97 310.176 1416.95 Q315.564 1408.89 325.731 1408.89 Z" fill="#000000" fill-rule="nonzero" fill-opacity="1" /><path clip-path="url(#clip480)" d="M773.451 1409.98 L805.575 1409.98 L805.575 1416.87 L780.945 1416.87 L780.945 1431.69 Q782.728 1431.09 784.51 1430.8 Q786.293 1430.48 788.075 1430.48 Q798.202 1430.48 804.117 1436.03 Q810.031 1441.58 810.031 1451.06 Q810.031 1460.82 803.955 1466.25 Q797.878 1471.63 786.819 1471.63 Q783.011 1471.63 779.041 1470.99 Q775.112 1470.34 770.899 1469.04 L770.899 1460.82 Q774.545 1462.8 778.434 1463.78 Q782.323 1464.75 786.657 1464.75 Q793.665 1464.75 797.757 1461.06 Q801.848 1457.38 801.848 1451.06 Q801.848 1444.74 797.757 1441.05 Q793.665 1437.36 786.657 1437.36 Q783.376 1437.36 780.095 1438.09 Q776.854 1438.82 773.451 1440.36 L773.451 1409.98 Z" fill="#000000" fill-rule="nonzero" fill-opacity="1" /><path clip-path="url(#clip480)" d="M843.653 1415.37 Q837.334 1415.37 834.134 1421.61 Q830.974 1427.8 830.974 1440.28 Q830.974 1452.72 834.134 1458.96 Q837.334 1465.15 843.653 1465.15 Q850.013 1465.15 853.173 1458.96 Q856.373 1452.72 856.373 1440.28 Q856.373 1427.8 853.173 1421.61 Q850.013 1415.37 843.653 1415.37 M843.653 1408.89 Q853.821 1408.89 859.168 1416.95 Q864.556 1424.97 864.556 1440.28 Q864.556 1455.55 859.168 1463.61 Q853.821 1471.63 843.653 1471.63 Q833.486 1471.63 828.098 1463.61 Q822.751 1455.55 822.751 1440.28 Q822.751 1424.97 828.098 1416.95 Q833.486 1408.89 843.653 1408.89 Z" fill="#000000" fill-rule="nonzero" fill-opacity="1" /><path clip-path="url(#clip480)" d="M1239.04 1463.57 L1252.4 1463.57 L1252.4 1417.43 L1237.86 1420.35 L1237.86 1412.9 L1252.32 1409.98 L1260.51 1409.98 L1260.51 1463.57 L1273.87 1463.57 L1273.87 1470.46 L1239.04 1470.46 L1239.04 1463.57 Z" fill="#000000" fill-rule="nonzero" fill-opacity="1" /><path clip-path="url(#clip480)" d="M1307.9 1415.37 Q1301.58 1415.37 1298.38 1421.61 Q1295.22 1427.8 1295.22 1440.28 Q1295.22 1452.72 1298.38 1458.96 Q1301.58 1465.15 1307.9 1465.15 Q1314.26 1465.15 1317.42 1458.96 Q1320.62 1452.72 1320.62 1440.28 Q1320.62 1427.8 1317.42 1421.61 Q1314.26 1415.37 1307.9 1415.37 M1307.9 1408.89 Q1318.07 1408.89 1323.42 1416.95 Q1328.8 1424.97 1328.8 1440.28 Q1328.8 1455.55 1323.42 1463.61 Q1318.07 1471.63 1307.9 1471.63 Q1297.73 1471.63 1292.35 1463.61 Q1287 1455.55 1287 1440.28 Q1287 1424.97 1292.35 1416.95 Q1297.73 1408.89 1307.9 1408.89 Z" fill="#000000" fill-rule="nonzero" fill-opacity="1" /><path clip-path="url(#clip480)" d="M1360.68 1415.37 Q1354.36 1415.37 1351.16 1421.61 Q1348 1427.8 1348 1440.28 Q1348 1452.72 1351.16 1458.96 Q1354.36 1465.15 1360.68 1465.15 Q1367.04 1465.15 1370.2 1458.96 Q1373.4 1452.72 1373.4 1440.28 Q1373.4 1427.8 1370.2 1421.61 Q1367.04 1415.37 1360.68 1415.37 M1360.68 1408.89 Q1370.85 1408.89 1376.2 1416.95 Q1381.59 1424.97 1381.59 1440.28 Q1381.59 1455.55 1376.2 1463.61 Q1370.85 1471.63 1360.68 1471.63 Q1350.52 1471.63 1345.13 1463.61 Q1339.78 1455.55 1339.78 1440.28 Q1339.78 1424.97 1345.13 1416.95 Q1350.52 1408.89 1360.68 1408.89 Z" fill="#000000" fill-rule="nonzero" fill-opacity="1" /><path clip-path="url(#clip480)" d="M1731.03 1463.57 L1744.4 1463.57 L1744.4 1417.43 L1729.86 1420.35 L1729.86 1412.9 L1744.32 1409.98 L1752.5 1409.98 L1752.5 1463.57 L1765.87 1463.57 L1765.87 1470.46 L1731.03 1470.46 L1731.03 1463.57 Z" fill="#000000" fill-rule="nonzero" fill-opacity="1" /><path clip-path="url(#clip480)" d="M1782.48 1409.98 L1814.6 1409.98 L1814.6 1416.87 L1789.97 1416.87 L1789.97 1431.69 Q1791.75 1431.09 1793.54 1430.8 Q1795.32 1430.48 1797.1 1430.48 Q1807.23 1430.48 1813.14 1436.03 Q1819.06 1441.58 1819.06 1451.06 Q1819.06 1460.82 1812.98 1466.25 Q1806.91 1471.63 1795.85 1471.63 Q1792.04 1471.63 1788.07 1470.99 Q1784.14 1470.34 1779.93 1469.04 L1779.93 1460.82 Q1783.57 1462.8 1787.46 1463.78 Q1791.35 1464.75 1795.68 1464.75 Q1802.69 1464.75 1806.78 1461.06 Q1810.88 1457.38 1810.88 1451.06 Q1810.88 1444.74 1806.78 1441.05 Q1802.69 1437.36 1795.68 1437.36 Q1792.4 1437.36 1789.12 1438.09 Q1785.88 1438.82 1782.48 1440.36 L1782.48 1409.98 Z" fill="#000000" fill-rule="nonzero" fill-opacity="1" /><path clip-path="url(#clip480)" d="M1852.68 1415.37 Q1846.36 1415.37 1843.16 1421.61 Q1840 1427.8 1840 1440.28 Q1840 1452.72 1843.16 1458.96 Q1846.36 1465.15 1852.68 1465.15 Q1859.04 1465.15 1862.2 1458.96 Q1865.4 1452.72 1865.4 1440.28 Q1865.4 1427.8 1862.2 1421.61 Q1859.04 1415.37 1852.68 1415.37 M1852.68 1408.89 Q1862.85 1408.89 1868.2 1416.95 Q1873.58 1424.97 1873.58 1440.28 Q1873.58 1455.55 1868.2 1463.61 Q1862.85 1471.63 1852.68 1471.63 Q1842.51 1471.63 1837.13 1463.61 Q1831.78 1455.55 1831.78 1440.28 Q1831.78 1424.97 1837.13 1416.95 Q1842.51 1408.89 1852.68 1408.89 Z" fill="#000000" fill-rule="nonzero" fill-opacity="1" /><path clip-path="url(#clip480)" d="M2230.18 1463.57 L2258.74 1463.57 L2258.74 1470.46 L2220.33 1470.46 L2220.33 1463.57 Q2224.99 1458.75 2233.01 1450.65 Q2241.07 1442.51 2243.14 1440.16 Q2247.07 1435.74 2248.61 1432.71 Q2250.19 1429.63 2250.19 1426.67 Q2250.19 1421.85 2246.79 1418.81 Q2243.42 1415.77 2238 1415.77 Q2234.15 1415.77 2229.85 1417.11 Q2225.6 1418.45 2220.74 1421.16 L2220.74 1412.9 Q2225.68 1410.91 2229.98 1409.9 Q2234.27 1408.89 2237.83 1408.89 Q2247.23 1408.89 2252.82 1413.59 Q2258.41 1418.28 2258.41 1426.14 Q2258.41 1429.87 2256.99 1433.23 Q2255.62 1436.55 2251.93 1441.09 Q2250.92 1442.27 2245.49 1447.9 Q2240.06 1453.49 2230.18 1463.57 Z" fill="#000000" fill-rule="nonzero" fill-opacity="1" /><path clip-path="url(#clip480)" d="M2293.41 1415.37 Q2287.09 1415.37 2283.89 1421.61 Q2280.73 1427.8 2280.73 1440.28 Q2280.73 1452.72 2283.89 1458.96 Q2287.09 1465.15 2293.41 1465.15 Q2299.77 1465.15 2302.93 1458.96 Q2306.13 1452.72 2306.13 1440.28 Q2306.13 1427.8 2302.93 1421.61 Q2299.77 1415.37 2293.41 1415.37 M2293.41 1408.89 Q2303.58 1408.89 2308.93 1416.95 Q2314.32 1424.97 2314.32 1440.28 Q2314.32 1455.55 2308.93 1463.61 Q2303.58 1471.63 2293.41 1471.63 Q2283.24 1471.63 2277.86 1463.61 Q2272.51 1455.55 2272.51 1440.28 Q2272.51 1424.97 2277.86 1416.95 Q2283.24 1408.89 2293.41 1408.89 Z" fill="#000000" fill-rule="nonzero" fill-opacity="1" /><path clip-path="url(#clip480)" d="M2346.2 1415.37 Q2339.88 1415.37 2336.68 1421.61 Q2333.52 1427.8 2333.52 1440.28 Q2333.52 1452.72 2336.68 1458.96 Q2339.88 1465.15 2346.2 1465.15 Q2352.56 1465.15 2355.72 1458.96 Q2358.92 1452.72 2358.92 1440.28 Q2358.92 1427.8 2355.72 1421.61 Q2352.56 1415.37 2346.2 1415.37 M2346.2 1408.89 Q2356.36 1408.89 2361.71 1416.95 Q2367.1 1424.97 2367.1 1440.28 Q2367.1 1455.55 2361.71 1463.61 Q2356.36 1471.63 2346.2 1471.63 Q2336.03 1471.63 2330.64 1463.61 Q2325.29 1455.55 2325.29 1440.28 Q2325.29 1424.97 2330.64 1416.95 Q2336.03 1408.89 2346.2 1408.89 Z" fill="#000000" fill-rule="nonzero" fill-opacity="1" /><path clip-path="url(#clip480)" d="M1311.02 1521.39 L1334.96 1585.32 L1325.93 1585.32 L1311.39 1546.99 L1293.52 1585.32 L1284.49 1585.32 L1307.22 1535.6 L1303.8 1526.44 Q1301.62 1520.6 1296.67 1520.6 L1292.22 1520.6 L1292.22 1513.29 L1297.64 1513.38 Q1308.1 1513.52 1311.02 1521.39 Z" fill="#000000" fill-rule="nonzero" fill-opacity="1" /><polyline clip-path="url(#clip480)" style="stroke:#000000; stroke-linecap:round; stroke-linejoin:round; stroke-width:4; stroke-opacity:1; fill:none" points="266.692,1375.66 266.692,123.472 "/>
<polyline clip-path="url(#clip480)" style="stroke:#000000; stroke-linecap:round; stroke-linejoin:round; stroke-width:4; stroke-opacity:1; fill:none" points="266.692,1340.22 285.589,1340.22 "/>
<polyline clip-path="url(#clip480)" style="stroke:#000000; stroke-linecap:round; stroke-linejoin:round; stroke-width:4; stroke-opacity:1; fill:none" points="266.692,1044.89 285.589,1044.89 "/>
<polyline clip-path="url(#clip480)" style="stroke:#000000; stroke-linecap:round; stroke-linejoin:round; stroke-width:4; stroke-opacity:1; fill:none" points="266.692,749.566 285.589,749.566 "/>
<polyline clip-path="url(#clip480)" style="stroke:#000000; stroke-linecap:round; stroke-linejoin:round; stroke-width:4; stroke-opacity:1; fill:none" points="266.692,454.239 285.589,454.239 "/>
<polyline clip-path="url(#clip480)" style="stroke:#000000; stroke-linecap:round; stroke-linejoin:round; stroke-width:4; stroke-opacity:1; fill:none" points="266.692,158.911 285.589,158.911 "/>
<path clip-path="url(#clip480)" d="M145.704 1363.57 L174.263 1363.57 L174.263 1370.46 L135.86 1370.46 L135.86 1363.57 Q140.519 1358.75 148.539 1350.65 Q156.601 1342.51 158.667 1340.16 Q162.596 1335.74 164.135 1332.71 Q165.715 1329.63 165.715 1326.67 Q165.715 1321.85 162.313 1318.81 Q158.95 1315.77 153.522 1315.77 Q149.674 1315.77 145.38 1317.11 Q141.126 1318.45 136.265 1321.16 L136.265 1312.9 Q141.207 1310.91 145.501 1309.9 Q149.795 1308.89 153.36 1308.89 Q162.758 1308.89 168.348 1313.59 Q173.939 1318.28 173.939 1326.14 Q173.939 1329.87 172.521 1333.23 Q171.144 1336.55 167.457 1341.09 Q166.444 1342.27 161.016 1347.9 Q155.588 1353.49 145.704 1363.57 Z" fill="#000000" fill-rule="nonzero" fill-opacity="1" /><path clip-path="url(#clip480)" d="M213.921 1317.11 L193.261 1349.4 L213.921 1349.4 L213.921 1317.11 M211.774 1309.98 L222.063 1309.98 L222.063 1349.4 L230.692 1349.4 L230.692 1356.2 L222.063 1356.2 L222.063 1370.46 L213.921 1370.46 L213.921 1356.2 L186.618 1356.2 L186.618 1348.3 L211.774 1309.98 Z" fill="#000000" fill-rule="nonzero" fill-opacity="1" /><path clip-path="url(#clip480)" d="M148.296 1068.25 L176.855 1068.25 L176.855 1075.13 L138.453 1075.13 L138.453 1068.25 Q143.111 1063.43 151.132 1055.32 Q159.193 1047.18 161.259 1044.83 Q165.189 1040.42 166.728 1037.38 Q168.308 1034.3 168.308 1031.34 Q168.308 1026.52 164.905 1023.48 Q161.543 1020.45 156.115 1020.45 Q152.266 1020.45 147.972 1021.78 Q143.719 1023.12 138.858 1025.83 L138.858 1017.57 Q143.8 1015.58 148.094 1014.57 Q152.388 1013.56 155.953 1013.56 Q165.351 1013.56 170.941 1018.26 Q176.531 1022.96 176.531 1030.82 Q176.531 1034.54 175.113 1037.91 Q173.736 1041.23 170.05 1045.76 Q169.037 1046.94 163.609 1052.57 Q158.181 1058.16 148.296 1068.25 Z" fill="#000000" fill-rule="nonzero" fill-opacity="1" /><path clip-path="url(#clip480)" d="M194.112 1014.65 L226.236 1014.65 L226.236 1021.54 L201.606 1021.54 L201.606 1036.37 Q203.389 1035.76 205.171 1035.47 Q206.954 1035.15 208.736 1035.15 Q218.863 1035.15 224.778 1040.7 Q230.692 1046.25 230.692 1055.73 Q230.692 1065.49 224.615 1070.92 Q218.539 1076.31 207.48 1076.31 Q203.672 1076.31 199.702 1075.66 Q195.773 1075.01 191.56 1073.72 L191.56 1065.49 Q195.206 1067.48 199.095 1068.45 Q202.984 1069.42 207.318 1069.42 Q214.326 1069.42 218.418 1065.74 Q222.509 1062.05 222.509 1055.73 Q222.509 1049.41 218.418 1045.72 Q214.326 1042.04 207.318 1042.04 Q204.037 1042.04 200.756 1042.77 Q197.515 1043.5 194.112 1045.04 L194.112 1014.65 Z" fill="#000000" fill-rule="nonzero" fill-opacity="1" /><path clip-path="url(#clip480)" d="M146.271 772.919 L174.83 772.919 L174.83 779.806 L136.427 779.806 L136.427 772.919 Q141.086 768.099 149.107 759.997 Q157.168 751.855 159.234 749.505 Q163.163 745.09 164.703 742.052 Q166.282 738.973 166.282 736.016 Q166.282 731.195 162.88 728.157 Q159.517 725.119 154.089 725.119 Q150.241 725.119 145.947 726.456 Q141.693 727.792 136.832 730.506 L136.832 722.243 Q141.774 720.258 146.068 719.245 Q150.362 718.232 153.927 718.232 Q163.325 718.232 168.916 722.931 Q174.506 727.63 174.506 735.489 Q174.506 739.216 173.088 742.578 Q171.711 745.9 168.024 750.437 Q167.012 751.612 161.583 757.242 Q156.155 762.833 146.271 772.919 Z" fill="#000000" fill-rule="nonzero" fill-opacity="1" /><path clip-path="url(#clip480)" d="M210.518 746.305 Q205.009 746.305 201.768 750.072 Q198.568 753.84 198.568 760.402 Q198.568 766.924 201.768 770.732 Q205.009 774.499 210.518 774.499 Q216.028 774.499 219.228 770.732 Q222.468 766.924 222.468 760.402 Q222.468 753.84 219.228 750.072 Q216.028 746.305 210.518 746.305 M226.762 720.663 L226.762 728.116 Q223.684 726.658 220.524 725.888 Q217.405 725.119 214.326 725.119 Q206.224 725.119 201.93 730.587 Q197.677 736.056 197.069 747.115 Q199.459 743.591 203.065 741.727 Q206.67 739.824 211.004 739.824 Q220.119 739.824 225.385 745.373 Q230.692 750.883 230.692 760.402 Q230.692 769.719 225.183 775.35 Q219.673 780.981 210.518 780.981 Q200.026 780.981 194.477 772.96 Q188.927 764.899 188.927 749.627 Q188.927 735.287 195.733 726.78 Q202.538 718.232 214.002 718.232 Q217.081 718.232 220.2 718.84 Q223.36 719.448 226.762 720.663 Z" fill="#000000" fill-rule="nonzero" fill-opacity="1" /><path clip-path="url(#clip480)" d="M148.134 477.592 L176.693 477.592 L176.693 484.479 L138.291 484.479 L138.291 477.592 Q142.949 472.772 150.97 464.67 Q159.031 456.527 161.097 454.178 Q165.027 449.762 166.566 446.724 Q168.146 443.646 168.146 440.688 Q168.146 435.868 164.743 432.83 Q161.381 429.791 155.953 429.791 Q152.104 429.791 147.81 431.128 Q143.557 432.465 138.696 435.179 L138.696 426.915 Q143.638 424.93 147.932 423.918 Q152.226 422.905 155.791 422.905 Q165.189 422.905 170.779 427.604 Q176.369 432.303 176.369 440.162 Q176.369 443.889 174.951 447.251 Q173.574 450.573 169.888 455.11 Q168.875 456.284 163.447 461.915 Q158.019 467.505 148.134 477.592 Z" fill="#000000" fill-rule="nonzero" fill-opacity="1" /><path clip-path="url(#clip480)" d="M191.803 423.999 L230.692 423.999 L230.692 427.482 L208.736 484.479 L200.189 484.479 L220.848 430.885 L191.803 430.885 L191.803 423.999 Z" fill="#000000" fill-rule="nonzero" fill-opacity="1" /><path clip-path="url(#clip480)" d="M146.717 182.265 L175.275 182.265 L175.275 189.151 L136.873 189.151 L136.873 182.265 Q141.531 177.444 149.552 169.342 Q157.614 161.2 159.679 158.851 Q163.609 154.435 165.148 151.397 Q166.728 148.318 166.728 145.361 Q166.728 140.541 163.325 137.502 Q159.963 134.464 154.535 134.464 Q150.686 134.464 146.393 135.801 Q142.139 137.138 137.278 139.852 L137.278 131.588 Q142.22 129.603 146.514 128.59 Q150.808 127.578 154.373 127.578 Q163.771 127.578 169.361 132.277 Q174.951 136.976 174.951 144.835 Q174.951 148.561 173.534 151.924 Q172.156 155.245 168.47 159.782 Q167.457 160.957 162.029 166.588 Q156.601 172.178 146.717 182.265 Z" fill="#000000" fill-rule="nonzero" fill-opacity="1" /><path clip-path="url(#clip480)" d="M209.951 160.43 Q204.118 160.43 200.756 163.55 Q197.434 166.669 197.434 172.138 Q197.434 177.606 200.756 180.726 Q204.118 183.845 209.951 183.845 Q215.784 183.845 219.147 180.726 Q222.509 177.566 222.509 172.138 Q222.509 166.669 219.147 163.55 Q215.825 160.43 209.951 160.43 M201.768 156.947 Q196.502 155.65 193.545 152.045 Q190.628 148.44 190.628 143.255 Q190.628 136.004 195.773 131.791 Q200.958 127.578 209.951 127.578 Q218.985 127.578 224.129 131.791 Q229.274 136.004 229.274 143.255 Q229.274 148.44 226.317 152.045 Q223.4 155.65 218.175 156.947 Q224.089 158.324 227.37 162.334 Q230.692 166.345 230.692 172.138 Q230.692 180.928 225.304 185.627 Q219.957 190.326 209.951 190.326 Q199.945 190.326 194.558 185.627 Q189.211 180.928 189.211 172.138 Q189.211 166.345 192.532 162.334 Q195.854 158.324 201.768 156.947 M198.771 144.024 Q198.771 148.723 201.687 151.356 Q204.645 153.99 209.951 153.99 Q215.217 153.99 218.175 151.356 Q221.172 148.723 221.172 144.024 Q221.172 139.325 218.175 136.692 Q215.217 134.059 209.951 134.059 Q204.645 134.059 201.687 136.692 Q198.771 139.325 198.771 144.024 Z" fill="#000000" fill-rule="nonzero" fill-opacity="1" /><path clip-path="url(#clip480)" d="M17.6893 1109.4 L43.6614 1109.4 L43.6614 1097.64 Q43.6614 1091.12 40.2818 1087.55 Q36.9022 1083.99 30.6522 1083.99 Q24.4485 1083.99 21.0689 1087.55 Q17.6893 1091.12 17.6893 1097.64 L17.6893 1109.4 M10.0042 1118.75 L10.0042 1097.64 Q10.0042 1086.02 15.2819 1080.1 Q20.5134 1074.12 30.6522 1074.12 Q40.8836 1074.12 46.1151 1080.1 Q51.3465 1086.02 51.3465 1097.64 L51.3465 1109.4 L79.1242 1109.4 L79.1242 1118.75 L10.0042 1118.75 Z" fill="#000000" fill-rule="nonzero" fill-opacity="1" /><path clip-path="url(#clip480)" d="M35.2355 1033.57 Q34.4022 1035 34.0318 1036.72 Q33.6151 1038.38 33.6151 1040.42 Q33.6151 1047.64 38.3373 1051.53 Q43.0132 1055.37 51.8095 1055.37 L79.1242 1055.37 L79.1242 1063.94 L27.2726 1063.94 L27.2726 1055.37 L35.3281 1055.37 Q30.6059 1052.69 28.3374 1048.38 Q26.0226 1044.08 26.0226 1037.92 Q26.0226 1037.04 26.1615 1035.98 Q26.2541 1034.91 26.4856 1033.62 L35.2355 1033.57 Z" fill="#000000" fill-rule="nonzero" fill-opacity="1" /><path clip-path="url(#clip480)" d="M27.2726 1024.63 L27.2726 1016.12 L79.1242 1016.12 L79.1242 1024.63 L27.2726 1024.63 M7.08751 1024.63 L7.08751 1016.12 L17.8745 1016.12 L17.8745 1024.63 L7.08751 1024.63 Z" fill="#000000" fill-rule="nonzero" fill-opacity="1" /><path clip-path="url(#clip480)" d="M29.2633 960.977 L37.2262 960.977 Q35.2355 964.588 34.2633 968.245 Q33.2448 971.856 33.2448 975.56 Q33.2448 983.847 38.5225 988.43 Q43.754 993.014 53.2447 993.014 Q62.7354 993.014 68.0131 988.43 Q73.2446 983.847 73.2446 975.56 Q73.2446 971.856 72.2723 968.245 Q71.2538 964.588 69.2631 960.977 L77.1334 960.977 Q78.8001 964.542 79.6334 968.384 Q80.4667 972.181 80.4667 976.486 Q80.4667 988.199 73.1057 995.097 Q65.7446 1002 53.2447 1002 Q40.5595 1002 33.2911 995.051 Q26.0226 988.06 26.0226 975.931 Q26.0226 971.995 26.8559 968.245 Q27.643 964.495 29.2633 960.977 Z" fill="#000000" fill-rule="nonzero" fill-opacity="1" /><path clip-path="url(#clip480)" d="M51.0688 901.811 L55.2354 901.811 L55.2354 940.977 Q64.0316 940.421 68.6613 935.699 Q73.2446 930.931 73.2446 922.459 Q73.2446 917.551 72.0409 912.968 Q70.8372 908.338 68.4298 903.801 L76.4853 903.801 Q78.4297 908.385 79.4482 913.199 Q80.4667 918.014 80.4667 922.968 Q80.4667 935.375 73.2446 942.644 Q66.0224 949.866 53.7076 949.866 Q40.9762 949.866 33.5225 943.014 Q26.0226 936.116 26.0226 924.449 Q26.0226 913.986 32.7818 907.922 Q39.4947 901.811 51.0688 901.811 M48.5688 910.329 Q41.5781 910.422 37.4114 914.264 Q33.2448 918.06 33.2448 924.357 Q33.2448 931.486 37.2725 935.792 Q41.3003 940.051 48.6151 940.699 L48.5688 910.329 Z" fill="#000000" fill-rule="nonzero" fill-opacity="1" /><path clip-path="url(#clip480)" d="M46.7169 824.542 Q47.7354 821.533 51.0688 818.709 Q54.4021 815.839 60.2354 812.968 L79.1242 803.478 L79.1242 813.524 L61.3928 822.367 Q54.4484 825.792 52.1799 829.033 Q49.9114 832.228 49.9114 837.783 L49.9114 847.968 L79.1242 847.968 L79.1242 857.32 L10.0042 857.32 L10.0042 836.209 Q10.0042 824.357 14.9578 818.524 Q19.9115 812.691 29.9115 812.691 Q36.4392 812.691 40.7447 815.746 Q45.0503 818.755 46.7169 824.542 M17.6893 847.968 L42.2262 847.968 L42.2262 836.209 Q42.2262 829.45 39.1244 826.024 Q35.9762 822.552 29.9115 822.552 Q23.8467 822.552 20.7911 826.024 Q17.6893 829.45 17.6893 836.209 L17.6893 847.968 Z" fill="#000000" fill-rule="nonzero" fill-opacity="1" /><path clip-path="url(#clip480)" d="M10.0042 791.441 L10.0042 777.506 L57.0409 759.867 L10.0042 742.135 L10.0042 728.2 L79.1242 728.2 L79.1242 737.321 L18.43 737.321 L65.8372 755.145 L65.8372 764.543 L18.43 782.367 L79.1242 782.367 L79.1242 791.441 L10.0042 791.441 Z" fill="#000000" fill-rule="nonzero" fill-opacity="1" /><path clip-path="url(#clip480)" d="M12.2727 668.201 L21.393 668.201 Q18.8467 673.525 17.5967 678.247 Q16.3467 682.969 16.3467 687.367 Q16.3467 695.006 19.3097 699.173 Q22.2726 703.293 27.7355 703.293 Q32.3189 703.293 34.68 700.562 Q36.9948 697.784 38.4299 690.099 L39.5873 684.451 Q41.5781 673.988 46.6243 669.034 Q51.6243 664.034 60.0502 664.034 Q70.0964 664.034 75.2816 670.793 Q80.4667 677.506 80.4667 690.515 Q80.4667 695.423 79.3556 700.978 Q78.2445 706.488 76.0686 712.413 L66.439 712.413 Q69.6335 706.719 71.2538 701.256 Q72.8742 695.793 72.8742 690.515 Q72.8742 682.506 69.7261 678.154 Q66.5779 673.803 60.7446 673.803 Q55.6521 673.803 52.7817 676.951 Q49.9114 680.052 48.4762 687.182 L47.3651 692.876 Q45.2817 703.339 40.8373 708.015 Q36.3929 712.691 28.4763 712.691 Q19.3097 712.691 14.0319 706.256 Q8.75416 699.775 8.75416 688.432 Q8.75416 683.571 9.63379 678.525 Q10.5134 673.478 12.2727 668.201 Z" fill="#000000" fill-rule="nonzero" fill-opacity="1" /><path clip-path="url(#clip480)" d="M10.0042 649.451 L10.0042 605.747 L17.8745 605.747 L17.8745 640.099 L38.3373 640.099 L38.3373 607.182 L46.2077 607.182 L46.2077 640.099 L71.2538 640.099 L71.2538 604.914 L79.1242 604.914 L79.1242 649.451 L10.0042 649.451 Z" fill="#000000" fill-rule="nonzero" fill-opacity="1" /><path clip-path="url(#clip480)" d="M7.1801 539.312 Q17.8282 545.516 28.2448 548.525 Q38.6614 551.535 49.3558 551.535 Q60.0502 551.535 70.5594 548.525 Q81.0223 545.47 91.6241 539.312 L91.6241 546.72 Q80.7445 553.664 70.2353 557.136 Q59.7261 560.562 49.3558 560.562 Q39.0318 560.562 28.5689 557.136 Q18.106 553.711 7.1801 546.72 L7.1801 539.312 Z" fill="#000000" fill-rule="nonzero" fill-opacity="1" /><path clip-path="url(#clip480)" d="M10.0042 522.414 L10.0042 513.063 L39.217 513.063 L10.0042 482.044 L10.0042 470.007 L42.2262 504.313 L79.1242 467.554 L79.1242 479.868 L45.8373 513.063 L79.1242 513.063 L79.1242 522.414 L10.0042 522.414 Z" fill="#000000" fill-rule="nonzero" fill-opacity="1" /><path clip-path="url(#clip480)" d="M93.0593 437.507 L93.0593 442.137 L79.1242 442.183 Q79.0316 447.044 78.0131 451.906 Q76.9482 456.767 74.8649 461.674 L66.5316 461.674 Q69.4946 456.952 71.0223 452.137 Q72.5038 447.276 72.5501 442.137 L51.4391 442.137 Q49.7725 452.369 45.791 457.044 Q41.8095 461.674 34.8651 461.674 Q27.3189 461.674 22.9671 456.628 Q18.6152 451.581 17.9671 442.137 L7.08751 442.137 L7.08751 437.507 L17.8282 437.507 Q18.0134 433.202 18.7541 429.174 Q19.4486 425.146 20.6985 421.304 L28.8004 421.304 Q26.8559 425.146 25.7911 429.22 Q24.7263 433.248 24.5411 437.507 L44.3095 437.507 Q45.9299 426.998 50.0965 422.045 Q54.2632 417.091 61.4854 417.091 Q69.3094 417.091 73.8464 422.369 Q78.3371 427.6 79.0316 437.507 L93.0593 437.507 M43.4762 442.137 L24.4948 442.137 Q25.0967 447.507 27.5504 450.331 Q30.0041 453.156 34.0781 453.156 Q38.0596 453.156 40.2818 450.563 Q42.504 447.924 43.4762 442.137 M52.365 437.507 L72.4112 437.507 Q71.6242 431.628 69.0779 428.665 Q66.5316 425.656 62.365 425.656 Q58.2909 425.656 55.8835 428.526 Q53.4761 431.35 52.365 437.507 Z" fill="#000000" fill-rule="nonzero" fill-opacity="1" /><path clip-path="url(#clip480)" d="M7.1801 401.628 L7.1801 394.221 Q18.106 387.276 28.5689 383.85 Q39.0318 380.378 49.3558 380.378 Q59.7261 380.378 70.2353 383.85 Q80.7445 387.276 91.6241 394.221 L91.6241 401.628 Q81.0223 395.471 70.5594 392.461 Q60.0502 389.406 49.3558 389.406 Q38.6614 389.406 28.2448 392.461 Q17.8282 395.471 7.1801 401.628 Z" fill="#000000" fill-rule="nonzero" fill-opacity="1" /><path clip-path="url(#clip480)" d="M723.923 12.096 L775.086 12.096 L775.086 18.9825 L753.616 18.9825 L753.616 72.576 L745.392 72.576 L745.392 18.9825 L723.923 18.9825 L723.923 12.096 Z" fill="#000000" fill-rule="nonzero" fill-opacity="1" /><path clip-path="url(#clip480)" d="M780.109 27.2059 L787.562 27.2059 L787.562 72.576 L780.109 72.576 L780.109 27.2059 M780.109 9.54393 L787.562 9.54393 L787.562 18.9825 L780.109 18.9825 L780.109 9.54393 Z" fill="#000000" fill-rule="nonzero" fill-opacity="1" /><path clip-path="url(#clip480)" d="M802.875 9.54393 L810.369 9.54393 L810.369 46.7717 L832.608 27.2059 L842.128 27.2059 L818.066 48.4326 L843.141 72.576 L833.419 72.576 L810.369 50.4176 L810.369 72.576 L802.875 72.576 L802.875 9.54393 Z" fill="#000000" fill-rule="nonzero" fill-opacity="1" /><path clip-path="url(#clip480)" d="M888.916 45.1919 L888.916 72.576 L881.462 72.576 L881.462 45.4349 Q881.462 38.994 878.951 35.7938 Q876.439 32.5936 871.416 32.5936 Q865.38 32.5936 861.896 36.4419 Q858.413 40.2903 858.413 46.9338 L858.413 72.576 L850.918 72.576 L850.918 9.54393 L858.413 9.54393 L858.413 34.2544 Q861.086 30.163 864.692 28.1376 Q868.337 26.1121 873.077 26.1121 Q880.895 26.1121 884.906 30.9732 Q888.916 35.7938 888.916 45.1919 Z" fill="#000000" fill-rule="nonzero" fill-opacity="1" /><path clip-path="url(#clip480)" d="M921.364 32.4315 Q915.368 32.4315 911.885 37.1306 Q908.401 41.7891 908.401 49.9314 Q908.401 58.0738 911.844 62.7728 Q915.328 67.4314 921.364 67.4314 Q927.319 67.4314 930.802 62.7323 Q934.286 58.0333 934.286 49.9314 Q934.286 41.8701 930.802 37.1711 Q927.319 32.4315 921.364 32.4315 M921.364 26.1121 Q931.086 26.1121 936.636 32.4315 Q942.185 38.7509 942.185 49.9314 Q942.185 61.0714 936.636 67.4314 Q931.086 73.7508 921.364 73.7508 Q911.601 73.7508 906.051 67.4314 Q900.542 61.0714 900.542 49.9314 Q900.542 38.7509 906.051 32.4315 Q911.601 26.1121 921.364 26.1121 Z" fill="#000000" fill-rule="nonzero" fill-opacity="1" /><path clip-path="url(#clip480)" d="M992.255 45.1919 L992.255 72.576 L984.801 72.576 L984.801 45.4349 Q984.801 38.994 982.289 35.7938 Q979.778 32.5936 974.755 32.5936 Q968.719 32.5936 965.235 36.4419 Q961.751 40.2903 961.751 46.9338 L961.751 72.576 L954.257 72.576 L954.257 27.2059 L961.751 27.2059 L961.751 34.2544 Q964.425 30.163 968.03 28.1376 Q971.676 26.1121 976.415 26.1121 Q984.234 26.1121 988.244 30.9732 Q992.255 35.7938 992.255 45.1919 Z" fill="#000000" fill-rule="nonzero" fill-opacity="1" /><path clip-path="url(#clip480)" d="M1024.7 32.4315 Q1018.71 32.4315 1015.22 37.1306 Q1011.74 41.7891 1011.74 49.9314 Q1011.74 58.0738 1015.18 62.7728 Q1018.67 67.4314 1024.7 67.4314 Q1030.66 67.4314 1034.14 62.7323 Q1037.62 58.0333 1037.62 49.9314 Q1037.62 41.8701 1034.14 37.1711 Q1030.66 32.4315 1024.7 32.4315 M1024.7 26.1121 Q1034.42 26.1121 1039.97 32.4315 Q1045.52 38.7509 1045.52 49.9314 Q1045.52 61.0714 1039.97 67.4314 Q1034.42 73.7508 1024.7 73.7508 Q1014.94 73.7508 1009.39 67.4314 Q1003.88 61.0714 1003.88 49.9314 Q1003.88 38.7509 1009.39 32.4315 Q1014.94 26.1121 1024.7 26.1121 Z" fill="#000000" fill-rule="nonzero" fill-opacity="1" /><path clip-path="url(#clip480)" d="M1052.53 27.2059 L1060.43 27.2059 L1074.61 65.2844 L1088.79 27.2059 L1096.69 27.2059 L1079.67 72.576 L1069.55 72.576 L1052.53 27.2059 Z" fill="#000000" fill-rule="nonzero" fill-opacity="1" /><path clip-path="url(#clip480)" d="M1159.64 34.1734 Q1158.38 33.4443 1156.88 33.1202 Q1155.42 32.7556 1153.64 32.7556 Q1147.32 32.7556 1143.92 36.8875 Q1140.56 40.9789 1140.56 48.6757 L1140.56 72.576 L1133.06 72.576 L1133.06 27.2059 L1140.56 27.2059 L1140.56 34.2544 Q1142.91 30.1225 1146.67 28.1376 Q1150.44 26.1121 1155.83 26.1121 Q1156.6 26.1121 1157.53 26.2337 Q1158.46 26.3147 1159.6 26.5172 L1159.64 34.1734 Z" fill="#000000" fill-rule="nonzero" fill-opacity="1" /><path clip-path="url(#clip480)" d="M1204.44 48.0275 L1204.44 51.6733 L1170.17 51.6733 Q1170.66 59.3701 1174.79 63.421 Q1178.96 67.4314 1186.37 67.4314 Q1190.67 67.4314 1194.68 66.3781 Q1198.73 65.3249 1202.7 63.2184 L1202.7 70.267 Q1198.69 71.9684 1194.48 72.8596 Q1190.26 73.7508 1185.93 73.7508 Q1175.07 73.7508 1168.71 67.4314 Q1162.39 61.1119 1162.39 50.3365 Q1162.39 39.1965 1168.39 32.6746 Q1174.42 26.1121 1184.63 26.1121 Q1193.79 26.1121 1199.09 32.0264 Q1204.44 37.9003 1204.44 48.0275 M1196.99 45.84 Q1196.91 39.7232 1193.54 36.0774 Q1190.22 32.4315 1184.71 32.4315 Q1178.47 32.4315 1174.71 35.9558 Q1170.98 39.4801 1170.41 45.8805 L1196.99 45.84 Z" fill="#000000" fill-rule="nonzero" fill-opacity="1" /><path clip-path="url(#clip480)" d="M1246.53 49.3643 Q1246.53 41.2625 1243.17 36.8065 Q1239.85 32.3505 1233.81 32.3505 Q1227.81 32.3505 1224.45 36.8065 Q1221.13 41.2625 1221.13 49.3643 Q1221.13 57.4256 1224.45 61.8816 Q1227.81 66.3376 1233.81 66.3376 Q1239.85 66.3376 1243.17 61.8816 Q1246.53 57.4256 1246.53 49.3643 M1253.98 66.9452 Q1253.98 78.5308 1248.84 84.1616 Q1243.69 89.8329 1233.08 89.8329 Q1229.15 89.8329 1225.67 89.2252 Q1222.18 88.6581 1218.9 87.4428 L1218.9 80.1917 Q1222.18 81.9741 1225.38 82.8248 Q1228.58 83.6755 1231.91 83.6755 Q1239.24 83.6755 1242.88 79.8271 Q1246.53 76.0193 1246.53 68.282 L1246.53 64.5957 Q1244.22 68.6061 1240.62 70.5911 Q1237.01 72.576 1231.99 72.576 Q1223.64 72.576 1218.54 66.2161 Q1213.43 59.8562 1213.43 49.3643 Q1213.43 38.832 1218.54 32.472 Q1223.64 26.1121 1231.99 26.1121 Q1237.01 26.1121 1240.62 28.0971 Q1244.22 30.082 1246.53 34.0924 L1246.53 27.2059 L1253.98 27.2059 L1253.98 66.9452 Z" fill="#000000" fill-rule="nonzero" fill-opacity="1" /><path clip-path="url(#clip480)" d="M1268.57 54.671 L1268.57 27.2059 L1276.02 27.2059 L1276.02 54.3874 Q1276.02 60.8284 1278.53 64.0691 Q1281.04 67.2693 1286.07 67.2693 Q1292.1 67.2693 1295.59 63.421 Q1299.11 59.5726 1299.11 52.9291 L1299.11 27.2059 L1306.56 27.2059 L1306.56 72.576 L1299.11 72.576 L1299.11 65.6084 Q1296.4 69.7404 1292.79 71.7658 Q1289.23 73.7508 1284.49 73.7508 Q1276.67 73.7508 1272.62 68.8897 Q1268.57 64.0286 1268.57 54.671 M1287.32 26.1121 L1287.32 26.1121 Z" fill="#000000" fill-rule="nonzero" fill-opacity="1" /><path clip-path="url(#clip480)" d="M1321.92 9.54393 L1329.37 9.54393 L1329.37 72.576 L1321.92 72.576 L1321.92 9.54393 Z" fill="#000000" fill-rule="nonzero" fill-opacity="1" /><path clip-path="url(#clip480)" d="M1365.59 49.7694 Q1356.55 49.7694 1353.07 51.8354 Q1349.58 53.9013 1349.58 58.8839 Q1349.58 62.8538 1352.18 65.2034 Q1354.81 67.5124 1359.31 67.5124 Q1365.5 67.5124 1369.23 63.1374 Q1373 58.7219 1373 51.4303 L1373 49.7694 L1365.59 49.7694 M1380.45 46.6907 L1380.45 72.576 L1373 72.576 L1373 65.6895 Q1370.45 69.8214 1366.64 71.8063 Q1362.83 73.7508 1357.32 73.7508 Q1350.35 73.7508 1346.22 69.8619 Q1342.13 65.9325 1342.13 59.3701 Q1342.13 51.7138 1347.24 47.825 Q1352.38 43.9361 1362.55 43.9361 L1373 43.9361 L1373 43.2069 Q1373 38.0623 1369.6 35.2672 Q1366.23 32.4315 1360.12 32.4315 Q1356.23 32.4315 1352.54 33.3632 Q1348.86 34.295 1345.45 36.1584 L1345.45 29.2718 Q1349.54 27.692 1353.39 26.9223 Q1357.24 26.1121 1360.89 26.1121 Q1370.73 26.1121 1375.59 31.2163 Q1380.45 36.3204 1380.45 46.6907 Z" fill="#000000" fill-rule="nonzero" fill-opacity="1" /><path clip-path="url(#clip480)" d="M1422.1 34.1734 Q1420.84 33.4443 1419.34 33.1202 Q1417.88 32.7556 1416.1 32.7556 Q1409.78 32.7556 1406.38 36.8875 Q1403.02 40.9789 1403.02 48.6757 L1403.02 72.576 L1395.52 72.576 L1395.52 27.2059 L1403.02 27.2059 L1403.02 34.2544 Q1405.37 30.1225 1409.13 28.1376 Q1412.9 26.1121 1418.29 26.1121 Q1419.06 26.1121 1419.99 26.2337 Q1420.92 26.3147 1422.06 26.5172 L1422.1 34.1734 Z" fill="#000000" fill-rule="nonzero" fill-opacity="1" /><path clip-path="url(#clip480)" d="M1429.91 27.2059 L1437.37 27.2059 L1437.37 72.576 L1429.91 72.576 L1429.91 27.2059 M1429.91 9.54393 L1437.37 9.54393 L1437.37 18.9825 L1429.91 18.9825 L1429.91 9.54393 Z" fill="#000000" fill-rule="nonzero" fill-opacity="1" /><path clip-path="url(#clip480)" d="M1449.72 27.2059 L1485.13 27.2059 L1485.13 34.0114 L1457.1 66.6212 L1485.13 66.6212 L1485.13 72.576 L1448.71 72.576 L1448.71 65.7705 L1476.74 33.1607 L1449.72 33.1607 L1449.72 27.2059 Z" fill="#000000" fill-rule="nonzero" fill-opacity="1" /><path clip-path="url(#clip480)" d="M1517.13 49.7694 Q1508.1 49.7694 1504.61 51.8354 Q1501.13 53.9013 1501.13 58.8839 Q1501.13 62.8538 1503.72 65.2034 Q1506.35 67.5124 1510.85 67.5124 Q1517.05 67.5124 1520.78 63.1374 Q1524.54 58.7219 1524.54 51.4303 L1524.54 49.7694 L1517.13 49.7694 M1532 46.6907 L1532 72.576 L1524.54 72.576 L1524.54 65.6895 Q1521.99 69.8214 1518.18 71.8063 Q1514.38 73.7508 1508.87 73.7508 Q1501.9 73.7508 1497.77 69.8619 Q1493.68 65.9325 1493.68 59.3701 Q1493.68 51.7138 1498.78 47.825 Q1503.92 43.9361 1514.09 43.9361 L1524.54 43.9361 L1524.54 43.2069 Q1524.54 38.0623 1521.14 35.2672 Q1517.78 32.4315 1511.66 32.4315 Q1507.77 32.4315 1504.09 33.3632 Q1500.4 34.295 1497 36.1584 L1497 29.2718 Q1501.09 27.692 1504.94 26.9223 Q1508.79 26.1121 1512.43 26.1121 Q1522.27 26.1121 1527.14 31.2163 Q1532 36.3204 1532 46.6907 Z" fill="#000000" fill-rule="nonzero" fill-opacity="1" /><path clip-path="url(#clip480)" d="M1554.72 14.324 L1554.72 27.2059 L1570.08 27.2059 L1570.08 32.9987 L1554.72 32.9987 L1554.72 57.6282 Q1554.72 63.1779 1556.22 64.7578 Q1557.76 66.3376 1562.42 66.3376 L1570.08 66.3376 L1570.08 72.576 L1562.42 72.576 Q1553.79 72.576 1550.51 69.3758 Q1547.23 66.1351 1547.23 57.6282 L1547.23 32.9987 L1541.76 32.9987 L1541.76 27.2059 L1547.23 27.2059 L1547.23 14.324 L1554.72 14.324 Z" fill="#000000" fill-rule="nonzero" fill-opacity="1" /><path clip-path="url(#clip480)" d="M1579.88 27.2059 L1587.33 27.2059 L1587.33 72.576 L1579.88 72.576 L1579.88 27.2059 M1579.88 9.54393 L1587.33 9.54393 L1587.33 18.9825 L1579.88 18.9825 L1579.88 9.54393 Z" fill="#000000" fill-rule="nonzero" fill-opacity="1" /><path clip-path="url(#clip480)" d="M1620.51 32.4315 Q1614.51 32.4315 1611.03 37.1306 Q1607.55 41.7891 1607.55 49.9314 Q1607.55 58.0738 1610.99 62.7728 Q1614.47 67.4314 1620.51 67.4314 Q1626.46 67.4314 1629.95 62.7323 Q1633.43 58.0333 1633.43 49.9314 Q1633.43 41.8701 1629.95 37.1711 Q1626.46 32.4315 1620.51 32.4315 M1620.51 26.1121 Q1630.23 26.1121 1635.78 32.4315 Q1641.33 38.7509 1641.33 49.9314 Q1641.33 61.0714 1635.78 67.4314 Q1630.23 73.7508 1620.51 73.7508 Q1610.75 73.7508 1605.2 67.4314 Q1599.69 61.0714 1599.69 49.9314 Q1599.69 38.7509 1605.2 32.4315 Q1610.75 26.1121 1620.51 26.1121 Z" fill="#000000" fill-rule="nonzero" fill-opacity="1" /><path clip-path="url(#clip480)" d="M1691.4 45.1919 L1691.4 72.576 L1683.95 72.576 L1683.95 45.4349 Q1683.95 38.994 1681.43 35.7938 Q1678.92 32.5936 1673.9 32.5936 Q1667.86 32.5936 1664.38 36.4419 Q1660.9 40.2903 1660.9 46.9338 L1660.9 72.576 L1653.4 72.576 L1653.4 27.2059 L1660.9 27.2059 L1660.9 34.2544 Q1663.57 30.163 1667.18 28.1376 Q1670.82 26.1121 1675.56 26.1121 Q1683.38 26.1121 1687.39 30.9732 Q1691.4 35.7938 1691.4 45.1919 Z" fill="#000000" fill-rule="nonzero" fill-opacity="1" /><path clip-path="url(#clip480)" d="M1750.22 32.4315 Q1744.22 32.4315 1740.74 37.1306 Q1737.26 41.7891 1737.26 49.9314 Q1737.26 58.0738 1740.7 62.7728 Q1744.18 67.4314 1750.22 67.4314 Q1756.17 67.4314 1759.66 62.7323 Q1763.14 58.0333 1763.14 49.9314 Q1763.14 41.8701 1759.66 37.1711 Q1756.17 32.4315 1750.22 32.4315 M1750.22 26.1121 Q1759.94 26.1121 1765.49 32.4315 Q1771.04 38.7509 1771.04 49.9314 Q1771.04 61.0714 1765.49 67.4314 Q1759.94 73.7508 1750.22 73.7508 Q1740.46 73.7508 1734.91 67.4314 Q1729.4 61.0714 1729.4 49.9314 Q1729.4 38.7509 1734.91 32.4315 Q1740.46 26.1121 1750.22 26.1121 Z" fill="#000000" fill-rule="nonzero" fill-opacity="1" /><path clip-path="url(#clip480)" d="M1806.36 9.54393 L1806.36 15.7418 L1799.24 15.7418 Q1795.22 15.7418 1793.64 17.3622 Q1792.11 18.9825 1792.11 23.1955 L1792.11 27.2059 L1804.38 27.2059 L1804.38 32.9987 L1792.11 32.9987 L1792.11 72.576 L1784.61 72.576 L1784.61 32.9987 L1777.48 32.9987 L1777.48 27.2059 L1784.61 27.2059 L1784.61 24.0462 Q1784.61 16.471 1788.14 13.0277 Q1791.66 9.54393 1799.32 9.54393 L1806.36 9.54393 Z" fill="#000000" fill-rule="nonzero" fill-opacity="1" /><path clip-path="url(#clip480)" d="M1834.64 27.2059 L1842.09 27.2059 L1851.41 62.6108 L1860.69 27.2059 L1869.48 27.2059 L1878.79 62.6108 L1888.07 27.2059 L1895.53 27.2059 L1883.66 72.576 L1874.87 72.576 L1865.1 35.3887 L1855.3 72.576 L1846.51 72.576 L1834.64 27.2059 Z" fill="#000000" fill-rule="nonzero" fill-opacity="1" /><polyline clip-path="url(#clip481)" style="stroke:#ff0000; stroke-linecap:round; stroke-linejoin:round; stroke-width:8; stroke-opacity:1; fill:none" points="325.731,293.036 365.091,297.934 404.451,302.404 443.81,306.479 483.17,310.188 522.53,313.559 561.89,316.615 601.249,319.377 640.609,321.867 679.969,324.102 719.328,326.099 758.688,327.873 798.048,329.437 837.407,330.806 876.767,331.991 916.127,333.002 955.487,333.851 994.846,334.546 1034.21,335.097 1073.57,335.511 1112.93,335.795 1152.29,335.958 1191.64,336.006 1231,335.944 1270.36,335.778 1309.72,335.515 1349.08,335.158 1388.44,334.713 1427.8,334.184 1467.16,333.576 1506.52,332.891 1545.88,332.135 1585.24,331.309 1624.6,330.418 1663.96,329.465 1703.32,328.453 1742.68,327.384 1782.04,326.261 1821.4,325.086 1860.76,323.863 1900.12,322.592 1939.48,321.276 1978.84,319.918 2018.2,318.518 2057.56,317.08 2096.92,315.604 2136.28,314.092 2175.64,312.545 2215,310.966 2254.36,309.356 2293.72,307.715 "/>
<polyline clip-path="url(#clip481)" style="stroke:#0000ff; stroke-linecap:round; stroke-linejoin:round; stroke-width:8; stroke-opacity:1; fill:none" points="325.731,1202.52 365.091,1202.43 404.451,1202.16 443.81,1201.74 483.17,1201.17 522.53,1200.47 561.89,1199.63 601.249,1198.68 640.609,1197.62 679.969,1196.46 719.328,1195.2 758.688,1193.86 798.048,1192.43 837.407,1190.93 876.767,1189.35 916.127,1187.71 955.487,1186 994.846,1184.23 1034.21,1182.41 1073.57,1180.54 1112.93,1178.61 1152.29,1176.64 1191.64,1174.63 1231,1172.58 1270.36,1170.49 1309.72,1168.36 1349.08,1166.2 1388.44,1164 1427.8,1161.78 1467.16,1159.53 1506.52,1157.25 1545.88,1154.94 1585.24,1152.61 1624.6,1150.26 1663.96,1147.89 1703.32,1145.5 1742.68,1143.08 1782.04,1140.65 1821.4,1138.21 1860.76,1135.74 1900.12,1133.26 1939.48,1130.77 1978.84,1128.26 2018.2,1125.74 2057.56,1123.21 2096.92,1120.67 2136.28,1118.12 2175.64,1115.55 2215,1112.98 2254.36,1110.4 2293.72,1107.8 "/>
<circle clip-path="url(#clip481)" cx="325.731" cy="1202.52" r="21.6" fill="#0000ff" fill-rule="evenodd" fill-opacity="1" stroke="none"/>
<circle clip-path="url(#clip481)" cx="1191.64" cy="336.006" r="21.6" fill="#ff0000" fill-rule="evenodd" fill-opacity="1" stroke="none"/>
<path clip-path="url(#clip480)" d="M1189.67 894.986 L2283.22 894.986 L2283.22 583.946 L1189.67 583.946  Z" fill="#ffffff" fill-rule="evenodd" fill-opacity="1"/>
<polyline clip-path="url(#clip480)" style="stroke:#000000; stroke-linecap:round; stroke-linejoin:round; stroke-width:4; stroke-opacity:1; fill:none" points="1189.67,894.986 2283.22,894.986 2283.22,583.946 1189.67,583.946 1189.67,894.986 "/>
<polyline clip-path="url(#clip480)" style="stroke:#ff0000; stroke-linecap:round; stroke-linejoin:round; stroke-width:16; stroke-opacity:1; fill:none" points="1212.84,687.626 1351.91,687.626 "/>
<path clip-path="url(#clip480)" d="M1375.09 653.066 L1433.56 653.066 L1433.56 660.936 L1409.03 660.936 L1409.03 722.186 L1399.63 722.186 L1399.63 660.936 L1375.09 660.936 L1375.09 653.066 Z" fill="#000000" fill-rule="nonzero" fill-opacity="1" /><path clip-path="url(#clip480)" d="M1470.46 694.13 L1470.46 698.297 L1431.3 698.297 Q1431.85 707.093 1436.57 711.723 Q1441.34 716.306 1449.81 716.306 Q1454.72 716.306 1459.31 715.102 Q1463.94 713.899 1468.47 711.491 L1468.47 719.547 Q1463.89 721.491 1459.07 722.51 Q1454.26 723.528 1449.31 723.528 Q1436.9 723.528 1429.63 716.306 Q1422.41 709.084 1422.41 696.769 Q1422.41 684.038 1429.26 676.584 Q1436.16 669.084 1447.82 669.084 Q1458.29 669.084 1464.35 675.843 Q1470.46 682.556 1470.46 694.13 M1461.94 691.63 Q1461.85 684.639 1458.01 680.473 Q1454.21 676.306 1447.92 676.306 Q1440.79 676.306 1436.48 680.334 Q1432.22 684.362 1431.57 691.676 L1461.94 691.63 Z" fill="#000000" fill-rule="nonzero" fill-opacity="1" /><path clip-path="url(#clip480)" d="M1517.5 671.862 L1517.5 679.917 Q1513.89 678.065 1510 677.14 Q1506.11 676.214 1501.94 676.214 Q1495.6 676.214 1492.41 678.158 Q1489.26 680.102 1489.26 683.991 Q1489.26 686.954 1491.53 688.667 Q1493.8 690.334 1500.65 691.862 L1503.56 692.51 Q1512.64 694.454 1516.43 698.019 Q1520.28 701.538 1520.28 707.88 Q1520.28 715.102 1514.54 719.315 Q1508.84 723.528 1498.84 723.528 Q1494.68 723.528 1490.14 722.695 Q1485.65 721.908 1480.65 720.287 L1480.65 711.491 Q1485.37 713.945 1489.95 715.195 Q1494.54 716.399 1499.03 716.399 Q1505.05 716.399 1508.29 714.362 Q1511.53 712.278 1511.53 708.528 Q1511.53 705.056 1509.17 703.204 Q1506.85 701.352 1498.93 699.639 L1495.97 698.945 Q1488.06 697.278 1484.54 693.852 Q1481.02 690.38 1481.02 684.362 Q1481.02 677.047 1486.2 673.065 Q1491.39 669.084 1500.93 669.084 Q1505.65 669.084 1509.81 669.778 Q1513.98 670.473 1517.5 671.862 Z" fill="#000000" fill-rule="nonzero" fill-opacity="1" /><path clip-path="url(#clip480)" d="M1542.27 655.612 L1542.27 670.334 L1559.81 670.334 L1559.81 676.954 L1542.27 676.954 L1542.27 705.102 Q1542.27 711.445 1543.98 713.25 Q1545.74 715.056 1551.06 715.056 L1559.81 715.056 L1559.81 722.186 L1551.06 722.186 Q1541.2 722.186 1537.45 718.528 Q1533.7 714.825 1533.7 705.102 L1533.7 676.954 L1527.45 676.954 L1527.45 670.334 L1533.7 670.334 L1533.7 655.612 L1542.27 655.612 Z" fill="#000000" fill-rule="nonzero" fill-opacity="1" /><path clip-path="url(#clip480)" d="M1573.19 673.158 L1582.96 673.158 L1582.96 684.917 L1573.19 684.917 L1573.19 673.158 M1573.19 710.426 L1582.96 710.426 L1582.96 718.389 L1575.37 733.204 L1569.4 733.204 L1573.19 718.389 L1573.19 710.426 Z" fill="#000000" fill-rule="nonzero" fill-opacity="1" /><path clip-path="url(#clip480)" d="M1670.32 696.306 Q1670.32 686.908 1666.43 681.584 Q1662.59 676.214 1655.83 676.214 Q1649.07 676.214 1645.18 681.584 Q1641.34 686.908 1641.34 696.306 Q1641.34 705.704 1645.18 711.075 Q1649.07 716.399 1655.83 716.399 Q1662.59 716.399 1666.43 711.075 Q1670.32 705.704 1670.32 696.306 M1641.34 678.204 Q1644.03 673.575 1648.1 671.353 Q1652.22 669.084 1657.92 669.084 Q1667.36 669.084 1673.24 676.584 Q1679.17 684.084 1679.17 696.306 Q1679.17 708.528 1673.24 716.028 Q1667.36 723.528 1657.92 723.528 Q1652.22 723.528 1648.1 721.306 Q1644.03 719.037 1641.34 714.408 L1641.34 722.186 L1632.78 722.186 L1632.78 650.149 L1641.34 650.149 L1641.34 678.204 Z" fill="#000000" fill-rule="nonzero" fill-opacity="1" /><path clip-path="url(#clip480)" d="M1737.64 694.13 L1737.64 698.297 L1698.47 698.297 Q1699.03 707.093 1703.75 711.723 Q1708.52 716.306 1716.99 716.306 Q1721.9 716.306 1726.48 715.102 Q1731.11 713.899 1735.65 711.491 L1735.65 719.547 Q1731.06 721.491 1726.25 722.51 Q1721.43 723.528 1716.48 723.528 Q1704.07 723.528 1696.8 716.306 Q1689.58 709.084 1689.58 696.769 Q1689.58 684.038 1696.43 676.584 Q1703.33 669.084 1715 669.084 Q1725.46 669.084 1731.53 675.843 Q1737.64 682.556 1737.64 694.13 M1729.12 691.63 Q1729.03 684.639 1725.18 680.473 Q1721.39 676.306 1715.09 676.306 Q1707.96 676.306 1703.66 680.334 Q1699.4 684.362 1698.75 691.676 L1729.12 691.63 Z" fill="#000000" fill-rule="nonzero" fill-opacity="1" /><path clip-path="url(#clip480)" d="M1784.67 671.862 L1784.67 679.917 Q1781.06 678.065 1777.17 677.14 Q1773.29 676.214 1769.12 676.214 Q1762.78 676.214 1759.58 678.158 Q1756.43 680.102 1756.43 683.991 Q1756.43 686.954 1758.7 688.667 Q1760.97 690.334 1767.82 691.862 L1770.74 692.51 Q1779.81 694.454 1783.61 698.019 Q1787.45 701.538 1787.45 707.88 Q1787.45 715.102 1781.71 719.315 Q1776.02 723.528 1766.02 723.528 Q1761.85 723.528 1757.31 722.695 Q1752.82 721.908 1747.82 720.287 L1747.82 711.491 Q1752.54 713.945 1757.13 715.195 Q1761.71 716.399 1766.2 716.399 Q1772.22 716.399 1775.46 714.362 Q1778.7 712.278 1778.7 708.528 Q1778.7 705.056 1776.34 703.204 Q1774.03 701.352 1766.11 699.639 L1763.15 698.945 Q1755.23 697.278 1751.71 693.852 Q1748.19 690.38 1748.19 684.362 Q1748.19 677.047 1753.38 673.065 Q1758.56 669.084 1768.1 669.084 Q1772.82 669.084 1776.99 669.778 Q1781.16 670.473 1784.67 671.862 Z" fill="#000000" fill-rule="nonzero" fill-opacity="1" /><path clip-path="url(#clip480)" d="M1809.44 655.612 L1809.44 670.334 L1826.99 670.334 L1826.99 676.954 L1809.44 676.954 L1809.44 705.102 Q1809.44 711.445 1811.16 713.25 Q1812.91 715.056 1818.24 715.056 L1826.99 715.056 L1826.99 722.186 L1818.24 722.186 Q1808.38 722.186 1804.63 718.528 Q1800.88 714.825 1800.88 705.102 L1800.88 676.954 L1794.63 676.954 L1794.63 670.334 L1800.88 670.334 L1800.88 655.612 L1809.44 655.612 Z" fill="#000000" fill-rule="nonzero" fill-opacity="1" /><path clip-path="url(#clip480)" d="M1888.75 658.251 L1912.68 722.186 L1903.65 722.186 L1889.12 683.852 L1871.25 722.186 L1862.22 722.186 L1884.95 672.464 L1881.53 663.297 Q1879.35 657.464 1874.4 657.464 L1869.95 657.464 L1869.95 650.149 L1875.37 650.242 Q1885.83 650.38 1888.75 658.251 Z" fill="#000000" fill-rule="nonzero" fill-opacity="1" /><path clip-path="url(#clip480)" d="M1955.69 679.13 L2015.04 679.13 L2015.04 686.908 L1955.69 686.908 L1955.69 679.13 M1955.69 698.019 L2015.04 698.019 L2015.04 705.889 L1955.69 705.889 L1955.69 698.019 Z" fill="#000000" fill-rule="nonzero" fill-opacity="1" /><path clip-path="url(#clip480)" d="M2085.37 689.362 Q2078.7 689.362 2074.86 692.926 Q2071.06 696.491 2071.06 702.741 Q2071.06 708.991 2074.86 712.556 Q2078.7 716.121 2085.37 716.121 Q2092.03 716.121 2095.88 712.556 Q2099.72 708.945 2099.72 702.741 Q2099.72 696.491 2095.88 692.926 Q2092.08 689.362 2085.37 689.362 M2076.02 685.38 Q2070 683.899 2066.62 679.778 Q2063.28 675.658 2063.28 669.732 Q2063.28 661.445 2069.16 656.63 Q2075.09 651.816 2085.37 651.816 Q2095.69 651.816 2101.57 656.63 Q2107.45 661.445 2107.45 669.732 Q2107.45 675.658 2104.07 679.778 Q2100.74 683.899 2094.77 685.38 Q2101.52 686.954 2105.27 691.538 Q2109.07 696.121 2109.07 702.741 Q2109.07 712.787 2102.91 718.158 Q2096.8 723.528 2085.37 723.528 Q2073.93 723.528 2067.77 718.158 Q2061.66 712.787 2061.66 702.741 Q2061.66 696.121 2065.46 691.538 Q2069.26 686.954 2076.02 685.38 M2072.59 670.612 Q2072.59 675.982 2075.92 678.991 Q2079.3 682.001 2085.37 682.001 Q2091.39 682.001 2094.77 678.991 Q2098.19 675.982 2098.19 670.612 Q2098.19 665.241 2094.77 662.232 Q2091.39 659.223 2085.37 659.223 Q2079.3 659.223 2075.92 662.232 Q2072.59 665.241 2072.59 670.612 Z" fill="#000000" fill-rule="nonzero" fill-opacity="1" /><path clip-path="url(#clip480)" d="M2145.69 689.362 Q2139.02 689.362 2135.18 692.926 Q2131.39 696.491 2131.39 702.741 Q2131.39 708.991 2135.18 712.556 Q2139.02 716.121 2145.69 716.121 Q2152.36 716.121 2156.2 712.556 Q2160.04 708.945 2160.04 702.741 Q2160.04 696.491 2156.2 692.926 Q2152.4 689.362 2145.69 689.362 M2136.34 685.38 Q2130.32 683.899 2126.94 679.778 Q2123.61 675.658 2123.61 669.732 Q2123.61 661.445 2129.49 656.63 Q2135.41 651.816 2145.69 651.816 Q2156.01 651.816 2161.89 656.63 Q2167.77 661.445 2167.77 669.732 Q2167.77 675.658 2164.39 679.778 Q2161.06 683.899 2155.09 685.38 Q2161.85 686.954 2165.6 691.538 Q2169.39 696.121 2169.39 702.741 Q2169.39 712.787 2163.24 718.158 Q2157.13 723.528 2145.69 723.528 Q2134.26 723.528 2128.1 718.158 Q2121.99 712.787 2121.99 702.741 Q2121.99 696.121 2125.78 691.538 Q2129.58 686.954 2136.34 685.38 M2132.91 670.612 Q2132.91 675.982 2136.25 678.991 Q2139.63 682.001 2145.69 682.001 Q2151.71 682.001 2155.09 678.991 Q2158.51 675.982 2158.51 670.612 Q2158.51 665.241 2155.09 662.232 Q2151.71 659.223 2145.69 659.223 Q2139.63 659.223 2136.25 662.232 Q2132.91 665.241 2132.91 670.612 Z" fill="#000000" fill-rule="nonzero" fill-opacity="1" /><path clip-path="url(#clip480)" d="M2186.01 710.426 L2195.78 710.426 L2195.78 722.186 L2186.01 722.186 L2186.01 710.426 Z" fill="#000000" fill-rule="nonzero" fill-opacity="1" /><path clip-path="url(#clip480)" d="M2236.15 659.223 Q2228.93 659.223 2225.27 666.353 Q2221.66 673.436 2221.66 687.695 Q2221.66 701.908 2225.27 709.037 Q2228.93 716.121 2236.15 716.121 Q2243.42 716.121 2247.03 709.037 Q2250.69 701.908 2250.69 687.695 Q2250.69 673.436 2247.03 666.353 Q2243.42 659.223 2236.15 659.223 M2236.15 651.816 Q2247.77 651.816 2253.88 661.028 Q2260.04 670.195 2260.04 687.695 Q2260.04 705.149 2253.88 714.362 Q2247.77 723.528 2236.15 723.528 Q2224.53 723.528 2218.38 714.362 Q2212.26 705.149 2212.26 687.695 Q2212.26 670.195 2218.38 661.028 Q2224.53 651.816 2236.15 651.816 Z" fill="#000000" fill-rule="nonzero" fill-opacity="1" /><polyline clip-path="url(#clip480)" style="stroke:#0000ff; stroke-linecap:round; stroke-linejoin:round; stroke-width:16; stroke-opacity:1; fill:none" points="1212.84,791.306 1351.91,791.306 "/>
<path clip-path="url(#clip480)" d="M1375.09 756.746 L1433.56 756.746 L1433.56 764.616 L1409.03 764.616 L1409.03 825.866 L1399.63 825.866 L1399.63 764.616 L1375.09 764.616 L1375.09 756.746 Z" fill="#000000" fill-rule="nonzero" fill-opacity="1" /><path clip-path="url(#clip480)" d="M1458.33 781.977 Q1456.9 781.144 1455.19 780.773 Q1453.52 780.357 1451.48 780.357 Q1444.26 780.357 1440.37 785.079 Q1436.53 789.755 1436.53 798.551 L1436.53 825.866 L1427.96 825.866 L1427.96 774.014 L1436.53 774.014 L1436.53 782.07 Q1439.21 777.347 1443.52 775.079 Q1447.82 772.764 1453.98 772.764 Q1454.86 772.764 1455.93 772.903 Q1456.99 772.995 1458.29 773.227 L1458.33 781.977 Z" fill="#000000" fill-rule="nonzero" fill-opacity="1" /><path clip-path="url(#clip480)" d="M1490.83 799.801 Q1480.51 799.801 1476.53 802.162 Q1472.55 804.523 1472.55 810.218 Q1472.55 814.755 1475.51 817.44 Q1478.52 820.079 1483.66 820.079 Q1490.74 820.079 1495 815.079 Q1499.31 810.032 1499.31 801.699 L1499.31 799.801 L1490.83 799.801 M1507.82 796.282 L1507.82 825.866 L1499.31 825.866 L1499.31 817.995 Q1496.39 822.717 1492.04 824.986 Q1487.68 827.208 1481.39 827.208 Q1473.43 827.208 1468.7 822.764 Q1464.03 818.273 1464.03 810.773 Q1464.03 802.023 1469.86 797.579 Q1475.74 793.134 1487.36 793.134 L1499.31 793.134 L1499.31 792.301 Q1499.31 786.421 1495.42 783.227 Q1491.57 779.986 1484.58 779.986 Q1480.14 779.986 1475.93 781.051 Q1471.71 782.116 1467.82 784.245 L1467.82 776.375 Q1472.5 774.57 1476.9 773.69 Q1481.3 772.764 1485.46 772.764 Q1496.71 772.764 1502.27 778.597 Q1507.82 784.431 1507.82 796.282 Z" fill="#000000" fill-rule="nonzero" fill-opacity="1" /><path clip-path="url(#clip480)" d="M1525.37 774.014 L1533.89 774.014 L1533.89 825.866 L1525.37 825.866 L1525.37 774.014 M1525.37 753.829 L1533.89 753.829 L1533.89 764.616 L1525.37 764.616 L1525.37 753.829 Z" fill="#000000" fill-rule="nonzero" fill-opacity="1" /><path clip-path="url(#clip480)" d="M1594.81 794.569 L1594.81 825.866 L1586.3 825.866 L1586.3 794.847 Q1586.3 787.486 1583.43 783.829 Q1580.55 780.171 1574.81 780.171 Q1567.92 780.171 1563.93 784.569 Q1559.95 788.968 1559.95 796.56 L1559.95 825.866 L1551.39 825.866 L1551.39 774.014 L1559.95 774.014 L1559.95 782.07 Q1563.01 777.394 1567.13 775.079 Q1571.3 772.764 1576.71 772.764 Q1585.65 772.764 1590.23 778.32 Q1594.81 783.829 1594.81 794.569 Z" fill="#000000" fill-rule="nonzero" fill-opacity="1" /></svg>
